<svg xmlns="http://www.w3.org/2000/svg" xmlns:xlink="http://www.w3.org/1999/xlink" width="1200" height="1200" viewBox="0 0 1200 1200"><g transform="translate(600 600) scale(0.69 0.69) rotate(15) translate(-600 -600)" style="fill:#56FF00"><svg fill="#56FF00" xmlns="http://www.w3.org/2000/svg" xmlns:xlink="http://www.w3.org/1999/xlink" version="1.1" x="0px" y="0px" viewBox="0 0 512 512" enable-background="new 0 0 512 512" xml:space="preserve"><metadata><?xpacket begin="&#65279;" id="W5M0MpCehiHzreSzNTczkc9d"?><x:xmpmeta xmlns:x="adobe:ns:meta/" x:xmptk="Adobe XMP Core 5.3-c011 66.145661, 2012/02/06-14:56:27        "></x:xmpmeta><?xpacket end="w"?></metadata><g><g><path d="M124.451,208.128c0-0.792,0.029-1.577,0.076-2.357l-75.781-36.188c6.179,32.243,14.716,64.998,25.014,95.996    l52.717-44.939C125.169,216.702,124.451,212.498,124.451,208.128z"></path><path d="M174.096,208.128c0-1.846-0.521-3.567-1.409-5.044c-0.042-0.064-0.087-0.124-0.128-0.188    c-0.055-0.087-0.096-0.177-0.148-0.265c-1.769-2.607-4.756-4.325-8.137-4.325c-5.416,0-9.822,4.406-9.822,9.822    c0,5.417,4.406,9.823,9.822,9.823S174.096,213.545,174.096,208.128z"></path><path d="M290.457,241.582c0-13.851,5.424-26.451,14.245-35.816l-18.397-31.809c-1.794,0.248-3.621,0.387-5.481,0.387    c-8.634,0-16.627-2.771-23.157-7.457l-54.199,34.23c0.406,2.277,0.63,4.618,0.63,7.011c0,9.476-3.331,18.183-8.877,25.027    l47.228,85.573c1.539-0.182,3.102-0.285,4.688-0.285c4.1,0,8.057,0.625,11.78,1.779l40.494-49.415    C293.759,262.459,290.457,252.399,290.457,241.582z"></path><path d="M256.957,358.268c0-5.416-4.406-9.822-9.824-9.822c-5.416,0-9.822,4.406-9.822,9.822s4.406,9.821,9.822,9.821    C252.551,368.089,256.957,363.684,256.957,358.268z"></path><path d="M270.999,134.52c0,5.417,4.407,9.824,9.823,9.824s9.822-4.407,9.822-9.824c0-5.416-4.406-9.822-9.822-9.822    S270.999,129.104,270.999,134.52z"></path><path d="M314.295,112.989c4.011,6.213,6.35,13.602,6.35,21.53c0,9.188-3.136,17.652-8.382,24.398l18.394,31.8    c3.885-0.923,7.93-1.427,12.093-1.427c15.597,0,29.61,6.871,39.2,17.736l81.301-37.422c3.906-20.385,6.873-40.563,8.748-59.959    c0.725-7.5-4.229-14.375-11.572-16.063c-34.994-8.039-72.777-20.432-107.918-34.945L314.295,112.989z"></path><path d="M365.041,241.582c0-12.291-10.001-22.291-22.293-22.291c-12.291,0-22.291,10-22.291,22.291s10,22.291,22.291,22.291    C355.04,263.873,365.041,253.873,365.041,241.582z"></path><path d="M273.393,388.167c-7.016,6.169-16.205,9.922-26.26,9.922c-8.195,0-15.818-2.489-22.157-6.752l-61.409,41.483    c25.844,29.726,54.76,52.18,86.1,66.776c2.008,0.936,4.17,1.402,6.334,1.402c2.162,0,4.325-0.468,6.333-1.402    c33.074-15.404,63.45-39.562,90.361-71.781L273.393,388.167z"></path><path d="M394.52,234.267c0.336,2.392,0.521,4.832,0.521,7.315c0,28.834-23.458,52.291-52.293,52.291    c-7.136,0-13.94-1.441-20.145-4.04l-40.491,49.413c3.088,5.654,4.845,12.137,4.845,19.021c0,1.035-0.053,2.06-0.131,3.074    l84.427,42.21c17.224-24.559,32.835-52.793,46.554-84.287c14.957-34.338,27.793-73.386,37.439-112.951L394.52,234.267z"></path><path d="M208.169,366.487c-0.56-2.654-0.858-5.403-0.858-8.222c0-9.475,3.332-18.183,8.878-25.025l-47.228-85.574    c-1.539,0.181-3.101,0.285-4.688,0.285c-6.607,0-12.838-1.627-18.329-4.487l-61.371,52.318c3.095,8.026,6.304,15.872,9.619,23.481    c14.796,33.969,31.793,64.147,50.643,90.006L208.169,366.487z"></path><path d="M182.51,172.744c1.717,0.889,3.36,1.898,4.921,3.018l54.2-34.229c-0.407-2.277-0.631-4.618-0.631-7.012    c0-21.957,17.864-39.822,39.822-39.822c3.074,0,6.063,0.362,8.94,1.025l34.712-49.373c-22.537-10.497-43.185-21.689-60.244-32.889    c-4.998-3.281-11.467-3.281-16.463,0c-15.523,10.191-34.018,20.377-54.203,30.037L182.51,172.744z"></path><path d="M42.808,133.502l94.66,45.203c4.301-3.922,9.463-6.913,15.164-8.659l9.626-112.551    C126.343,72.502,87.49,85.334,51.574,93.584c-7.344,1.688-12.297,8.563-11.571,16.063    C40.76,117.482,41.704,125.449,42.808,133.502z"></path></g></g></svg></g></svg>